<?xml version="1.0" encoding="UTF-8"?>
<svg width="40px" height="40px" viewBox="0 0 40 40" version="1.1" xmlns="http://www.w3.org/2000/svg" xmlns:xlink="http://www.w3.org/1999/xlink">
    <!-- Generator: Sketch 49 (51002) - http://www.bohemiancoding.com/sketch -->
    <title>icons/cost</title>
    <desc>Created with Sketch.</desc>
    <defs>
        <linearGradient x1="50%" y1="0%" x2="50%" y2="100%" id="linearGradient-1">
            <stop stop-color="#F093FB" offset="0%"></stop>
            <stop stop-color="#F5576C" offset="100%"></stop>
        </linearGradient>
    </defs>
    <g id="icons/cost" stroke="none" stroke-width="1" fill="none" fill-rule="evenodd">
        <g id="Group-8">
            <rect id="Rectangle-5" x="0" y="0" width="40" height="40"></rect>
            <path d="M13.3333333,0 L26.6666667,-4.4408921e-16 C28.5076158,-2.41735741e-15 30,1.49238417 30,3.33333333 L30,20 L38.9940777,20 C39.2241963,20 39.4107443,20.186548 39.4107443,20.4166667 C39.4107443,20.5271735 39.3668457,20.6331543 39.2887055,20.7112945 L20,40 L0.711294492,20.7112945 C0.548576037,20.548576 0.548576037,20.2847573 0.711294492,20.1220388 C0.78943465,20.0438987 0.895415447,20 1.00592232,20 L10,20 L10,3.33333333 C10,1.49238417 11.4923842,-5.50001544e-16 13.3333333,-8.8817842e-16 Z M20.0018407,11.6666667 C19.3678457,11.6666667 18.8586218,12.1629391 18.8586218,12.7699125 L18.8586218,13.2659603 L18.5896785,13.3435817 C18.0427889,13.5014229 17.5584593,13.7413807 17.1555075,14.0616663 C16.36517,14.6900098 15.8761191,15.6807718 15.8761191,16.7063766 C15.8761191,17.7319206 16.5282544,18.7750688 17.3674267,19.276861 C17.6672226,19.4561086 17.9792883,19.6032058 18.3383778,19.7416952 C18.4807323,19.7965967 18.6261541,19.8486973 18.8077057,19.9107443 C18.8618457,19.9292472 19.173594,20.0342959 19.2608397,20.0644089 C19.3913353,20.1094498 19.4988797,20.1483408 19.5994542,20.1873842 C19.877376,20.2952897 20.7319757,20.6127502 20.7051255,20.6025986 C21.0900554,20.7481347 21.3120914,20.8429184 21.4703724,20.9375759 L21.5416478,20.9802011 L21.5880886,21.0491912 C21.9796803,21.6309189 21.8533948,22.1989407 21.3471787,22.5697319 C20.9970287,22.8262084 20.469755,22.9787029 20.0176211,22.9840009 C19.1586878,22.9840009 18.3483443,22.485679 17.9622097,21.8493287 C17.7009015,21.3010007 16.8851288,21.053079 16.354989,21.3644697 C15.8267257,21.6747559 15.6586314,22.490102 16.042321,23.0006189 C16.589806,23.8974948 17.5017441,24.6196763 18.5972354,24.9612664 L18.8586218,25.0427705 L18.8586218,25.5634208 C18.8586218,26.170364 19.367865,26.6666667 20.0018407,26.6666667 C20.6358163,26.6666667 21.1450596,26.170364 21.1450596,25.5634208 L21.1450596,25.0813985 L21.4156833,25.0046723 C21.9549779,24.8517736 22.4446058,24.6050196 22.8639526,24.2716683 C23.6542725,23.6433314 24.1433427,22.6525233 24.1433427,21.6269567 C24.1433427,20.6013604 23.4912086,19.5582101 22.6520213,19.0564641 C22.3409653,18.8704659 22.0174196,18.7171087 21.6440528,18.5712364 C21.4975006,18.5139793 21.3487581,18.4597688 21.1591641,18.3935759 C21.1422252,18.3876621 20.7917745,18.2665393 20.6935233,18.2316289 C20.5911481,18.1952532 20.5027904,18.1626841 20.4200083,18.130548 C20.237756,18.0597874 20.054719,17.9914806 19.8345724,17.9114056 C19.7618976,17.8849712 19.408886,17.7576252 19.3180871,17.7244107 C18.9224877,17.5796991 18.7078982,17.4907024 18.5491311,17.3957823 L18.4769568,17.3526324 L18.4302963,17.2825334 C18.0390179,16.6947085 18.1670045,16.1253648 18.6777568,15.7570652 C19.029994,15.5030696 19.5594837,15.3542242 20.0176211,15.3493324 C20.8765843,15.3493324 21.6869612,15.8476559 22.0669256,16.4717717 C22.3423727,16.9991394 23.1264313,17.217232 23.6472602,16.9082019 C24.1645559,16.6012342 24.3349459,15.8201499 23.977136,15.3173052 C23.4192538,14.4033465 22.5041928,13.6739595 21.4092955,13.3421893 L21.1450596,13.2621218 L21.1450596,12.7699125 C21.1450596,12.1629391 20.6358356,11.6666667 20.0018407,11.6666667 Z" id="Combined-Shape" fill="url(#linearGradient-1)"></path>
        </g>
    </g>
</svg>