<?xml version="1.0" encoding="UTF-8"?>
<svg width="40px" height="40px" viewBox="0 0 40 40" version="1.1" xmlns="http://www.w3.org/2000/svg" xmlns:xlink="http://www.w3.org/1999/xlink">
    <!-- Generator: Sketch 49 (51002) - http://www.bohemiancoding.com/sketch -->
    <title>icons/dashboard</title>
    <desc>Created with Sketch.</desc>
    <defs>
        <linearGradient x1="50%" y1="0%" x2="50%" y2="100%" id="linearGradient-1">
            <stop stop-color="#F093FB" offset="0%"></stop>
            <stop stop-color="#F5576C" offset="100%"></stop>
        </linearGradient>
    </defs>
    <g id="icons/dashboard" stroke="none" stroke-width="1" fill="none" fill-rule="evenodd">
        <g id="Group-10">
            <rect id="Rectangle-5" x="0" y="0" width="40" height="40"></rect>
            <path d="M20,38 C10.0588745,38 2,29.9411255 2,20 C2,10.0588745 10.0588745,2 20,2 C29.9411255,2 38,10.0588745 38,20 C38,29.9411255 29.9411255,38 20,38 Z M20,24.5 C21.2426412,24.5 22.25,23.4926406 22.25,22.25 C22.25,21.0073594 21.2426412,20 20,20 C18.7573588,20 17.75,21.0073594 17.75,22.25 C17.75,23.4926406 18.7573588,24.5 20,24.5 Z M22.285964,18.3730465 L28.0151458,12.6438631 C28.4524647,12.2065454 29.1759838,12.2210333 29.6024757,12.6475244 C30.0418153,13.0868642 30.0561567,13.7848338 29.6061365,14.2348534 L23.8769525,19.9640367 C24.2728288,20.6339892 24.5,21.4154653 24.5,22.25 C24.5,22.4271616 24.4897625,22.6019319 24.4698455,22.7737518 C29.7289573,23.8786686 33.5,25.8892463 33.5,20 C33.5,12.5441559 27.455843,6.5 20,6.5 C12.544157,6.5 6.5,12.5441559 6.5,20 C6.5,25.8892463 10.2710427,23.8786686 15.5301545,22.7737518 C15.5102375,22.6019319 15.5,22.4271616 15.5,22.25 C15.5,19.7647186 17.5147197,17.75 20,17.75 C20.834534,17.75 21.6160108,17.9771706 22.285964,18.3730465 Z" id="Shape" fill="url(#linearGradient-1)" fill-rule="nonzero"></path>
        </g>
    </g>
</svg>