<?xml version="1.0" encoding="UTF-8"?>
<svg width="40px" height="40px" viewBox="0 0 40 40" version="1.1" xmlns="http://www.w3.org/2000/svg" xmlns:xlink="http://www.w3.org/1999/xlink">
    <!-- Generator: Sketch 49 (51002) - http://www.bohemiancoding.com/sketch -->
    <title>icons/enterprise</title>
    <desc>Created with Sketch.</desc>
    <defs>
        <linearGradient x1="50%" y1="0%" x2="50%" y2="100%" id="linearGradient-1">
            <stop stop-color="#FFECD2" offset="0%"></stop>
            <stop stop-color="#FCB69F" offset="100%"></stop>
        </linearGradient>
    </defs>
    <g id="icons/enterprise" stroke="none" stroke-width="1" fill="none" fill-rule="evenodd">
        <g id="Group-10">
            <rect id="Rectangle-5" x="0" y="0" width="40" height="40"></rect>
            <path d="M36.8,36.5333333 L31.84,36.5333333 L31.84,3.23333333 C31.84,2.53444444 31.32,2 30.64,2 L9.36,2 C8.68,2 8.16,2.53444444 8.16,3.23333333 L8.16,36.5333333 L3.2,36.5333333 C2.52,36.5333333 2,37.0677778 2,37.7666667 C2,38.4655556 2.52,39 3.2,39 L36.8,39 C37.48,39 38,38.4655556 38,37.7666667 C38,37.0677778 37.48,36.5333333 36.8,36.5333333 Z M24.32,5.00111111 L29.2,5.00111111 L29.2,10.0166667 L24.32,10.0166667 L24.32,5.00111111 Z M24.32,12.4011111 L29.2,12.4011111 L29.2,17.4166667 L24.32,17.4166667 L24.32,12.4011111 Z M24.32,19.8011111 L29.2,19.8011111 L29.2,24.8166667 L24.32,24.8166667 L24.32,19.8011111 Z M24.32,27.2011111 L29.2,27.2011111 L29.2,32.2166667 L24.32,32.2166667 L24.32,27.2011111 Z M17.56,5.00111111 L22.44,5.00111111 L22.44,10.0166667 L17.56,10.0166667 L17.56,5.00111111 Z M17.56,12.4011111 L22.44,12.4011111 L22.44,17.4166667 L17.56,17.4166667 L17.56,12.4011111 Z M17.56,19.8011111 L22.44,19.8011111 L22.44,24.8166667 L17.56,24.8166667 L17.56,19.8011111 Z M10.8,5.00111111 L15.68,5.00111111 L15.68,10.0166667 L10.8,10.0166667 L10.8,5.00111111 Z M10.8,12.4011111 L15.68,12.4011111 L15.68,17.4166667 L10.8,17.4166667 L10.8,12.4011111 Z M10.8,19.8011111 L15.68,19.8011111 L15.68,24.8166667 L10.8,24.8166667 L10.8,19.8011111 Z M10.8,27.2011111 L15.68,27.2011111 L15.68,32.2166667 L10.8,32.2166667 L10.8,27.2011111 Z M17.56,36.5333333 L17.56,27.2011111 L22.44,27.2011111 L22.44,36.5333333 L17.56,36.5333333 Z" id="Shape" fill="url(#linearGradient-1)" fill-rule="nonzero"></path>
        </g>
    </g>
</svg>