<?xml version="1.0" encoding="UTF-8"?>
<svg width="40px" height="40px" viewBox="0 0 40 40" version="1.1" xmlns="http://www.w3.org/2000/svg" xmlns:xlink="http://www.w3.org/1999/xlink">
    <!-- Generator: Sketch 49 (51002) - http://www.bohemiancoding.com/sketch -->
    <title>icons/grow</title>
    <desc>Created with Sketch.</desc>
    <defs>
        <linearGradient x1="50%" y1="0%" x2="50%" y2="100%" id="linearGradient-1">
            <stop stop-color="#D4FC79" offset="0%"></stop>
            <stop stop-color="#96E6A1" offset="100%"></stop>
        </linearGradient>
    </defs>
    <g id="icons/grow" stroke="none" stroke-width="1" fill="none" fill-rule="evenodd">
        <g id="Group-10">
            <rect id="Rectangle-5" x="0" y="0" width="40" height="40"></rect>
            <path d="M34.4579827,3.42400173 L31.8194337,4.35108022 C31.2983764,4.53415853 30.7275616,4.26017236 30.5444833,3.739115 C30.361405,3.21805763 30.6353912,2.64724289 31.1564485,2.46416458 L38.169683,0 L37.9989478,7.50345392 C37.9863842,8.05559575 37.5286001,8.49301036 36.9764582,8.48044681 C36.4243164,8.46788325 35.9869018,8.01009908 35.9994653,7.45795725 L36.0641406,4.61561758 C27.5848986,16.0512312 16.5889133,22.6266535 3.1231744,24.2980152 C2.57509528,24.3660425 2.0756423,23.9768836 2.00761496,23.4288045 C1.93958762,22.8807254 2.32874648,22.3812724 2.8768256,22.3132451 C15.7875671,20.7107695 26.2989753,14.4289603 34.4579827,3.42400173 Z M34,14 L39,14 C39.5522847,14 40,14.4477153 40,15 L40,39 C40,39.5522847 39.5522847,40 39,40 L34,40 C33.4477153,40 33,39.5522847 33,39 L33,15 C33,14.4477153 33.4477153,14 34,14 Z M23,22 L28,22 C28.5522847,22 29,22.4477153 29,23 L29,39 C29,39.5522847 28.5522847,40 28,40 L23,40 C22.4477153,40 22,39.5522847 22,39 L22,23 C22,22.4477153 22.4477153,22 23,22 Z M12,28 L17,28 C17.5522847,28 18,28.4477153 18,29 L18,39 C18,39.5522847 17.5522847,40 17,40 L12,40 C11.4477153,40 11,39.5522847 11,39 L11,29 C11,28.4477153 11.4477153,28 12,28 Z M1,30 L6,30 C6.55228475,30 7,30.4477153 7,31 L7,39 C7,39.5522847 6.55228475,40 6,40 L1,40 C0.44771525,40 6.76353751e-17,39.5522847 0,39 L0,31 C-6.76353751e-17,30.4477153 0.44771525,30 1,30 Z" id="Combined-Shape" fill="url(#linearGradient-1)"></path>
        </g>
    </g>
</svg>