<?xml version="1.0" encoding="UTF-8"?>
<svg width="40px" height="40px" viewBox="0 0 40 40" version="1.1" xmlns="http://www.w3.org/2000/svg" xmlns:xlink="http://www.w3.org/1999/xlink">
    <!-- Generator: Sketch 49 (51002) - http://www.bohemiancoding.com/sketch -->
    <title>icons/inventory</title>
    <desc>Created with Sketch.</desc>
    <defs>
        <linearGradient x1="50%" y1="0%" x2="50%" y2="100%" id="linearGradient-1">
            <stop stop-color="#F9D423" offset="0%"></stop>
            <stop stop-color="#F88D00" offset="100%"></stop>
        </linearGradient>
    </defs>
    <g id="icons/inventory" stroke="none" stroke-width="1" fill="none" fill-rule="evenodd">
        <g id="Group-10">
            <rect id="Rectangle-5" x="0" y="0" width="40" height="40"></rect>
            <path d="M34.6443736,34.6221809 L38.8269394,34.6221809 C39.4184294,34.6221809 39.9999995,33.9776738 39.9999997,33.2606323 C40.0004422,32.5646454 39.4371169,31.9574711 38.8278383,31.9574711 L8.02489933,31.9574711 L8.02489933,9.1995096 C8.01292257,9.09800055 8.01051698,9.06474299 8.01051698,8.98051302 C8.01051698,8.28638304 7.50273298,7.74221744 6.88824459,7.74221744 L1.17485785,7.74221744 C0.564624748,7.74221744 1.13686838e-13,8.35054624 1.13686838e-13,9.04763303 C1.13686838e-13,9.76477021 0.582512649,10.41058 1.17485785,10.41058 L5.40191907,10.41058 L5.40191907,31.9574711 L3.85896307,31.9574711 C3.2497724,31.9574711 2.68635247,32.5647474 2.68635247,33.2615169 C2.68635247,33.9775686 3.26780868,34.6221809 3.85896307,34.6221809 L8.16782389,34.6221809 L8.16782389,35.9919769 C8.1802867,38.2267575 9.93461604,40 12.096002,40 C14.2612938,40 16.0177772,38.2209061 16.0259493,36.0238121 C16.0255791,36.0171626 16.0249894,35.5499522 16.0241801,34.6221809 L26.7880173,34.6221809 L26.7880173,35.9919769 C26.8004802,38.2267575 28.5548095,40 30.7161955,40 C32.8812111,40 34.6379688,38.2207318 34.6461427,36.023812 C34.6457725,36.0171625 34.6451828,35.5499522 34.6443736,34.6221809 Z M15.1544976,29.2631965 L31.1436208,29.2631965 C32.6200777,29.2631965 33.8169392,28.0473877 33.8169392,26.5478042 L33.8169392,25.8608516 C33.8169392,24.3608584 32.6201239,23.1450027 31.1436208,23.1450027 L15.1544976,23.1450027 C13.6779945,23.1450027 12.4811792,24.3608584 12.4811792,25.8608516 L12.4811792,26.5478042 C12.4811792,28.047663 13.6778621,29.2631965 15.1544976,29.2631965 Z M15.1544976,20.1906952 L31.1436208,20.1906952 C32.6200777,20.1906952 33.8169392,18.9748864 33.8169392,17.4753029 L33.8169392,16.7883502 C33.8169392,15.288357 32.6201239,14.0725013 31.1436208,14.0725013 L15.1544976,14.0725013 C13.6779945,14.0725013 12.4811792,15.288357 12.4811792,16.7883502 L12.4811792,17.4753029 C12.4811792,18.9751616 13.6778621,20.1906952 15.1544976,20.1906952 Z M15.1544976,11.1181938 L31.1436208,11.1181938 C32.6200777,11.1181938 33.8169392,9.90238506 33.8169392,8.40280156 L33.8169392,7.71584887 C33.8169392,6.2158557 32.6201239,5 31.1436208,5 L15.1544976,5 C13.6779945,5 12.4811792,6.2158557 12.4811792,7.71584887 L12.4811792,8.40280156 C12.4811792,9.90266028 13.6778621,11.1181938 15.1544976,11.1181938 Z" id="Shape" fill="url(#linearGradient-1)" fill-rule="nonzero"></path>
        </g>
    </g>
</svg>