<?xml version="1.0" encoding="UTF-8"?>
<svg width="40px" height="40px" viewBox="0 0 40 40" version="1.1" xmlns="http://www.w3.org/2000/svg" xmlns:xlink="http://www.w3.org/1999/xlink">
    <!-- Generator: Sketch 49 (51002) - http://www.bohemiancoding.com/sketch -->
    <title>icons/percent-3</title>
    <desc>Created with Sketch.</desc>
    <defs>
        <linearGradient x1="50%" y1="0%" x2="50%" y2="100%" id="linearGradient-1">
            <stop stop-color="#2D8E6F" offset="0%"></stop>
            <stop stop-color="#087B48" offset="100%"></stop>
        </linearGradient>
    </defs>
    <g id="icons/percent-3" stroke="none" stroke-width="1" fill="none" fill-rule="evenodd">
        <g id="Group-10-Copy">
            <rect id="Rectangle-5" x="0" y="0" width="40" height="40"></rect>
            <path d="M36.1058995,11.3762994 C36.1058995,11.3762994 35.0130542,6.14553015 30.2891423,4.30769231 C28.0681987,3.42411642 24.0140952,3 20.0304978,3 C16.0469005,3 11.992797,3.42411642 9.77185334,4.27234927 C5.01268837,6.11018711 3.91984308,11.3762994 3.91984308,11.3762994 C3.2147816,14.3451143 2.96801008,17.3492723 3.00326316,20 C3.00326316,22.6507277 3.2147816,25.6902287 3.91984308,28.6237006 C3.91984308,28.6237006 5.01268837,33.8544699 9.73660027,35.6923077 C11.9575439,36.5405405 16.0116474,36.964657 19.9952448,37 C23.9788421,36.964657 28.0329456,36.5758836 30.2538893,35.6923077 C34.9778012,33.8544699 36.0706465,28.6237006 36.0706465,28.6237006 C36.7757079,25.6548857 37.0224794,22.6507277 36.9872264,20 C37.0577325,17.3139293 36.8462141,14.3097713 36.1058995,11.3762994 Z M15.6591167,12.966736 C16.8929743,12.8607069 17.9505665,13.7442827 18.0915788,14.9459459 C18.197338,16.1829522 17.3160112,17.2432432 16.1174066,17.3846154 C14.8835491,17.4906445 13.8259568,16.6070686 13.6849445,15.4054054 C13.5439322,14.1683992 14.4252591,13.0727651 15.6591167,12.966736 Z M15.2713329,26.6091476 C15.0598144,26.8565489 14.7425368,26.997921 14.4252591,26.997921 C14.1432345,26.997921 13.8612099,26.8918919 13.6496915,26.7151767 C13.1914015,26.2910603 13.1561484,25.5488565 13.5791853,25.0893971 L24.2256136,13.2141372 C24.6486505,12.7546778 25.3889651,12.7193347 25.847255,13.1434511 C26.305545,13.5675676 26.3407981,14.3097713 25.9177612,14.7692308 L15.2713329,26.6091476 Z M24.3313729,26.8918919 C23.0975153,26.997921 22.0399231,26.1143451 21.8989108,24.9126819 C21.7931515,23.6756757 22.6744784,22.6153846 23.8730829,22.4740125 C25.1069405,22.3679834 26.1645327,23.2515593 26.305545,24.4532225 C26.4465573,25.6902287 25.5652304,26.7858628 24.3313729,26.8918919 Z" id="Shape" fill="url(#linearGradient-1)" fill-rule="nonzero"></path>
        </g>
    </g>
</svg>