<?xml version="1.0" encoding="UTF-8"?>
<svg width="56px" height="56px" viewBox="0 0 56 56" version="1.1" xmlns="http://www.w3.org/2000/svg" xmlns:xlink="http://www.w3.org/1999/xlink">
    <!-- Generator: Sketch 49 (51002) - http://www.bohemiancoding.com/sketch -->
    <title>icons/recomendations</title>
    <desc>Created with Sketch.</desc>
    <defs>
        <path d="M28,56 C12.536027,56 0,43.463973 0,28 C0,12.536027 12.536027,0 28,0 C43.463973,0 56,12.536027 56,28 C56,43.463973 43.463973,56 28,56 Z M28,48 C39.045695,48 48,39.045695 48,28 C48,16.954305 39.045695,8 28,8 C16.954305,8 8,16.954305 8,28 C8,39.045695 16.954305,48 28,48 Z" id="path-1"></path>
        <linearGradient x1="50%" y1="0%" x2="50%" y2="100%" id="linearGradient-3">
            <stop stop-color="#89F7FE" offset="0%"></stop>
            <stop stop-color="#66A6FF" offset="100%"></stop>
        </linearGradient>
    </defs>
    <g id="icons/recomendations" stroke="none" stroke-width="1" fill="none" fill-rule="evenodd">
        <g id="Group-13">
            <g id="Group-12">
                <mask id="mask-2" fill="white">
                    <use xlink:href="#path-1"></use>
                </mask>
                <use id="Combined-Shape" fill="#F5F5F5" xlink:href="#path-1"></use>
                <polygon id="Rectangle-6" fill="url(#linearGradient-3)" mask="url(#mask-2)" points="28 28 17.7495347 0 56 0 56 56 0 56 0 0"></polygon>
            </g>
        </g>
    </g>
</svg>