<?xml version="1.0" encoding="UTF-8"?>
<svg width="40px" height="40px" viewBox="0 0 40 40" version="1.1" xmlns="http://www.w3.org/2000/svg" xmlns:xlink="http://www.w3.org/1999/xlink">
    <!-- Generator: Sketch 49 (51002) - http://www.bohemiancoding.com/sketch -->
    <title>icons/shipping</title>
    <desc>Created with Sketch.</desc>
    <defs>
        <linearGradient x1="50%" y1="0%" x2="50%" y2="100%" id="linearGradient-1">
            <stop stop-color="#DD6BE1" offset="0%"></stop>
            <stop stop-color="#9B64E1" offset="100%"></stop>
        </linearGradient>
    </defs>
    <g id="icons/shipping" stroke="none" stroke-width="1" fill="none" fill-rule="evenodd">
        <g id="Group-10">
            <rect id="Rectangle-5" x="0" y="0" width="40" height="40"></rect>
            <path d="M15.3870956,27.9825581 C14.4237312,27.9825581 13.5245912,28.2383721 12.7538997,28.75 L8.19397506,10.7790698 C8.06552648,10.2674419 7.9370779,9.69186047 7.80862932,9.18023256 C7.74440502,8.86046512 7.55173215,8.73255814 7.2306107,8.60465116 C5.17543341,7.96511628 3.18448041,7.3255814 1.12930312,6.75 C0.422835927,6.55813953 -0.155182686,5.98255814 0.0374901854,5.0872093 C0.165938766,4.44767442 0.679733089,4 1.32197599,4 C1.45042457,4 1.57887315,4 1.70732173,4.06395349 C4.14784477,4.76744186 6.5883678,5.47093023 9.2215637,6.30232558 C9.79958232,6.49418605 10.1849281,6.87790698 10.3133766,7.58139535 L15.3870956,27.9825581 Z M19.1763287,33.4186047 C19.1763287,35.4011628 17.5064972,37 15.5155442,37 C13.4603669,37 11.9189839,35.4011628 11.9189839,33.3546512 C11.9189839,31.372093 13.5888154,29.7732558 15.5797684,29.7732558 C16.5431328,29.7732558 17.5064972,30.1569767 18.1487401,30.8604651 C18.790983,31.5639535 19.1763287,32.4593023 19.1763287,33.4186047 Z M38.2509429,31.0523256 C37.0949057,31.372093 34.9755041,31.9476744 33.7552426,32.2034884 L26.3694492,33.994186 C24.5711691,34.4418605 22.7086647,34.8895349 20.9103845,35.3372093 C20.9746088,35.0813953 21.0388331,34.8895349 21.1030574,34.6337209 C21.1672817,34.25 21.1672817,33.9302326 21.1672817,33.6104651 C21.1672817,33.0348837 21.1030574,32.3953488 20.9103845,31.8197674 C20.8461603,31.5639535 20.7177117,31.244186 20.5892631,30.9883721 L37.2233543,26.8953488 C37.4802514,26.8313953 37.6729243,26.8313953 37.8655972,26.8313953 C38.9574101,26.8313953 39.8565502,27.5988372 39.9849988,28.6860465 C40.1134474,29.7732558 39.4069802,30.7325581 38.2509429,31.0523256 Z M35.1039527,20.8837209 C35.4250742,22.2906977 34.6543827,23.505814 33.1129997,23.8255814 L24.1215991,26.0639535 L23.3509076,26.255814 C22.5159918,26.4476744 21.7453003,26.6395349 20.9103845,26.8313953 C20.6534874,26.8953488 20.3965902,26.9593023 20.1396931,26.9593023 C18.9194315,26.9593023 18.0845158,26.255814 17.7633943,24.9767442 L17.1853757,22.6744186 C16.4146842,19.3488372 15.5797684,16.0872093 14.7448527,12.7616279 C14.3595069,11.3546512 15.0659741,10.1395349 16.4789085,9.75581395 C17.3138243,9.5 18.0845158,9.30813953 18.9194315,9.11627907 L21.0388331,8.60465116 C21.1672817,8.60465116 21.1672817,8.60465116 21.1672817,8.60465116 C21.231506,8.60465116 21.231506,8.60465116 21.2957303,8.79651163 C21.4884032,9.37209302 21.6168517,10.0116279 21.8095246,10.6511628 L22.1306461,11.8023256 L22.7086647,11.6744186 C23.3509076,11.5465116 23.9289262,11.4186047 24.5711691,11.2267442 L25.213412,11.0988372 L24.8280663,9.56395349 C24.6353934,8.98837209 24.5069448,8.47674419 24.3784962,7.90116279 C24.763842,7.77325581 25.1491877,7.64534884 25.5345334,7.58139535 L25.662982,7.51744186 C26.754795,7.26162791 27.9108322,6.94186047 29.0026451,6.68604651 C30.4155795,6.36627907 31.635841,7.13372093 31.9569625,8.34883721 C33.2414483,13.3372093 34.2048126,17.3023256 35.1039527,20.8837209 Z" id="Combined-Shape" fill="url(#linearGradient-1)" fill-rule="nonzero"></path>
        </g>
    </g>
</svg>