<?xml version="1.0" encoding="UTF-8"?>
<svg width="40px" height="40px" viewBox="0 0 40 40" version="1.1" xmlns="http://www.w3.org/2000/svg" xmlns:xlink="http://www.w3.org/1999/xlink">
    <!-- Generator: Sketch 49 (51002) - http://www.bohemiancoding.com/sketch -->
    <title>icons/substitutes</title>
    <desc>Created with Sketch.</desc>
    <defs>
        <linearGradient x1="50%" y1="0%" x2="50%" y2="100%" id="linearGradient-1">
            <stop stop-color="#F9D423" offset="0%"></stop>
            <stop stop-color="#F88D00" offset="100%"></stop>
        </linearGradient>
    </defs>
    <g id="icons/substitutes" stroke="none" stroke-width="1" fill="none" fill-rule="evenodd">
        <g id="Group-10">
            <rect id="Rectangle-5" x="0" y="0" width="40" height="40"></rect>
            <path d="M39.3806734,14.7728274 C40.2054487,15.5867544 40.2063646,16.9077995 39.3838791,17.7235392 L33.8343918,23.2279696 C33.4254388,23.6326671 32.884595,23.8406807 32.3410036,23.8406807 C31.9045733,23.8406807 31.4658533,23.70699 31.0917049,23.4346236 L24.0442498,18.3049804 C23.1068178,17.622025 22.9048601,16.3159351 23.5949969,15.3878045 C24.2851336,14.459674 25.6049573,14.260271 26.5428472,14.9432264 L29.9655958,17.4344048 C28.6434825,13.2319857 24.6757685,10.1729618 19.9995995,10.1729618 C16.6579087,10.1729618 13.5992336,11.6993015 11.6075913,14.3608789 C10.9147068,15.2867434 9.59396732,15.4816146 8.65836717,14.7959401 C7.72276702,14.1102655 7.52584678,12.8032692 8.21873127,11.8774046 C10.973325,8.19705896 15.3774692,6 20.0000575,6 C26.8414332,6 32.6024953,10.6646716 34.2071664,16.9490397 L36.3984766,14.7759997 C37.22142,13.96026 38.5558981,13.9589005 39.3806734,14.7728274 Z M31.3412898,26.2036068 C32.2773479,26.8897345 32.4738102,28.1958244 31.7813837,29.1225954 C29.027248,32.802941 24.6226458,35 20.0000575,35 C13.1582238,35 7.39716168,30.3353284 5.79249065,24.0509603 L3.60072251,26.2240003 C3.1890218,26.6332297 2.64863601,26.8367114 2.10825022,26.8367114 C1.56923828,26.8367114 1.03068431,26.6336829 0.618983605,26.2267194 C-0.204875754,25.4132456 -0.20670757,24.0917473 0.615777926,23.2764608 L6.16618116,17.7724836 C6.9025713,17.0419434 8.06806439,16.9540248 8.90749418,17.5653764 L15.9554072,22.6941132 C16.8932971,23.3770687 17.093881,24.6831586 16.4046601,25.6117423 C15.7145234,26.5398728 14.3946998,26.7392758 13.4563519,26.0567736 L10.0340612,23.565142 C11.3561746,27.7675611 15.3243465,30.826585 20.0000575,30.826585 C23.3417483,30.826585 26.4004235,29.2997922 28.3925236,26.6382147 C29.0849502,25.7123502 30.4056897,25.5183854 31.3412898,26.2036068 Z" id="Combined-Shape" fill="url(#linearGradient-1)" fill-rule="nonzero"></path>
        </g>
    </g>
</svg>