<?xml version="1.0" encoding="UTF-8"?>
<svg width="40px" height="40px" viewBox="0 0 40 40" version="1.1" xmlns="http://www.w3.org/2000/svg" xmlns:xlink="http://www.w3.org/1999/xlink">
    <!-- Generator: Sketch 49 (51002) - http://www.bohemiancoding.com/sketch -->
    <title>icons/vendors</title>
    <desc>Created with Sketch.</desc>
    <defs>
        <linearGradient x1="50%" y1="0%" x2="50%" y2="100%" id="linearGradient-1">
            <stop stop-color="#89F7FE" offset="0%"></stop>
            <stop stop-color="#66A6FF" offset="100%"></stop>
        </linearGradient>
    </defs>
    <g id="icons/vendors" stroke="none" stroke-width="1" fill="none" fill-rule="evenodd">
        <g id="Group-10">
            <rect id="Rectangle-5" x="0" y="0" width="40" height="40"></rect>
            <path d="M34.9718518,34.2748538 C35.9931241,34.3567251 36.7692911,35.2163743 36.6875893,36.2807018 C36.6467384,37.1812865 35.9114224,37.9590643 34.9718518,38 L5.06899905,38 C4.04772675,37.9590643 3.27155981,37.0584795 3.35326159,36.0350877 C3.39411248,35.1345029 4.12942854,34.3567251 5.06899905,34.3157895 L6.53963115,34.3157895 L6.53963115,25.9239766 C6.7847365,25.9649123 7.07069275,26.005848 7.3157981,26.005848 C7.52005256,26.005848 7.72430701,26.005848 7.92856147,26.005848 C8.70472842,26.005848 9.48089536,25.8830409 10.2570623,25.6783626 L10.2570623,34.2748538 L29.7837886,34.2748538 L29.7837886,25.6783626 C30.5599555,25.8830409 31.3361225,26.005848 32.1122894,26.005848 C32.3165439,26.005848 32.5207983,26.005848 32.7250528,25.9649123 C32.9293073,25.9649123 33.2561144,25.9239766 33.5012197,25.8830409 L33.5012197,34.2748538 L34.9718518,34.2748538 Z M33.2969653,5.41520468 L37.4637562,14.748538 C38.2807741,16.5906433 38.1582214,18.7192982 37.1369491,20.4385965 C36.1973786,22.1169591 34.4407903,23.1812865 32.5207983,23.3040936 C32.3982457,23.3040936 32.2348421,23.3040936 32.1122894,23.3040936 C30.6008064,23.3040936 29.2118761,22.7719298 28.0680511,21.8304094 C25.7395503,23.7953216 22.3489263,23.8362573 20.0204254,21.871345 C17.6919246,23.8362573 14.3013006,23.7953216 11.9727998,21.8304094 C10.8289748,22.8128655 9.39919358,23.3450292 7.92856147,23.3450292 C7.8060088,23.3450292 7.64260523,23.3450292 7.52005256,23.3450292 C5.55920975,23.2222222 3.84347229,22.1169591 2.86305089,20.4385965 C1.8417786,18.7192982 1.71922592,16.5906433 2.53624376,14.748538 L6.74388561,5.41520468 C7.39749988,3.94152047 8.86813199,3 10.4613168,3 L29.5795341,3 C31.1727189,3 32.643351,3.94152047 33.2969653,5.41520468 Z" id="Combined-Shape" fill="url(#linearGradient-1)" fill-rule="nonzero"></path>
        </g>
    </g>
</svg>