<?xml version="1.0" encoding="UTF-8"?>
<svg width="600px" height="600px" viewBox="0 0 600 600" version="1.1" xmlns="http://www.w3.org/2000/svg" xmlns:xlink="http://www.w3.org/1999/xlink">
    <!-- Generator: Sketch 49 (51002) - http://www.bohemiancoding.com/sketch -->
    <title>head</title>
    <desc>Created with Sketch.</desc>
    <defs>
        <filter x="-37.2%" y="-27.2%" width="174.4%" height="154.3%" filterUnits="objectBoundingBox" id="filter-1">
            <feOffset dx="0" dy="0" in="SourceAlpha" result="shadowOffsetOuter1"></feOffset>
            <feGaussianBlur stdDeviation="32.5" in="shadowOffsetOuter1" result="shadowBlurOuter1"></feGaussianBlur>
            <feColorMatrix values="0 0 0 0 0   0 0 0 0 0   0 0 0 0 0  0 0 0 0.2 0" type="matrix" in="shadowBlurOuter1" result="shadowMatrixOuter1"></feColorMatrix>
            <feMerge>
                <feMergeNode in="shadowMatrixOuter1"></feMergeNode>
                <feMergeNode in="SourceGraphic"></feMergeNode>
            </feMerge>
        </filter>
        <linearGradient x1="162.221577%" y1="43.4573084%" x2="9.13644811%" y2="43.4573084%" id="linearGradient-2">
            <stop stop-color="#45ABE7" offset="0%"></stop>
            <stop stop-color="#37ECBA" offset="100%"></stop>
        </linearGradient>
    </defs>
    <g id="head" stroke="none" stroke-width="1" fill="none" fill-rule="evenodd">
        <g id="Group-2" filter="url(#filter-1)" transform="translate(169.000000, 121.000000)">
            <path d="M61.2948458,134.888116 C60.2672967,132.369468 57.7970218,130.594799 54.9129562,130.594799 C51.1069323,130.594799 48.0215404,133.68545 48.0215404,137.497963 C48.0215404,141.310475 51.1069323,144.401127 54.9129562,144.401127 C57.6800008,144.401127 60.0661526,142.76755 61.1627105,140.410648 C74.9550953,140.410575 82.421934,140.410538 83.5741718,140.410539 C85.9239902,140.410612 87.8938405,140.178972 90.5665583,139.292505 C94.4722485,137.997094 98.4136455,135.583942 102.293879,131.803504 C107.405914,126.822945 110.760336,123.396013 112.422201,121.444994 C115.856746,123.258475 119.674777,124.472652 123.732251,124.938528 C123.790947,125.010484 123.853811,125.080166 123.920845,125.147251 L152.383072,153.630975 C153.480299,154.72903 155.265549,154.704517 156.332317,153.576748 L163.746485,145.738618 L164.580386,146.573055 C165.645269,147.638623 167.366574,147.651535 168.447268,146.60206 L178.232712,137.099306 C179.340126,136.023883 179.351198,134.247552 178.257277,133.158361 L176.912662,131.819562 L184.337245,123.970421 C185.367908,122.880822 185.340856,121.166052 184.276337,120.109618 L158.02896,94.0615973 C157.824104,93.8582976 157.595431,93.6937986 157.352033,93.5680577 C157.26501,88.6491186 156.144443,84.0919457 154.139819,80.0508919 C154.26612,79.964112 154.386883,79.8655831 154.500603,79.7552808 L174.631737,60.2291537 C175.688862,59.2037989 175.755618,57.527505 174.78339,56.421058 L165.758715,46.150507 C164.71854,44.9667337 162.901568,44.8945477 161.771068,45.9920827 L140.69324,66.4552871 C136.423661,64.2317642 131.732199,63.0236136 127.170805,63.0236136 C126.346206,63.0236136 125.511464,63.0663751 124.666677,63.1516223 C123.422154,61.357252 121.349591,60.1825264 119.003123,60.1825264 C115.197099,60.1825264 112.111707,63.2731781 112.111707,67.0856903 C112.111707,70.8982025 115.197099,73.9888543 119.003123,73.9888543 C122.289306,73.9888543 125.038266,71.6848116 125.727889,68.601437 C126.215736,68.5645398 126.696695,68.5461448 127.170805,68.5461448 C132.940342,68.5461448 139.098885,70.9983847 143.758957,75.285695 C148.895224,80.01111 151.844384,86.5342344 151.844384,94.1893298 C151.844384,98.7351451 151.098173,101.859197 149.706296,104.685444 C149.358097,105.392472 148.109927,107.602008 147.888759,108.049701 C147.363012,109.113934 147.57535,110.395691 148.416074,111.232779 L169.208382,131.935169 L163.637961,137.824122 L142.526609,116.699188 C141.617624,115.789618 140.20187,115.629708 139.113506,116.313676 C135.589623,118.528215 131.729011,119.629232 127.472348,119.629232 C112.902767,119.629232 101.243229,108.08304 101.243229,94.1893298 C101.243229,89.2739352 102.328049,84.9291329 104.490922,81.107718 C105.093298,80.0434246 104.924704,78.7089583 104.076634,77.8285379 C89.102207,62.2828875 80.794888,54.5137993 77.6307106,53.4153338 C74.5758461,52.354817 71.4666783,51.7378378 68.3105667,51.5649552 C67.1778025,49.3065663 64.8440446,47.7568313 62.1489427,47.7568313 C58.3429189,47.7568313 55.257527,50.847483 55.257527,54.6599952 C55.257527,58.4725074 58.3429189,61.5631592 62.1489427,61.5631592 C65.0909475,61.5631592 67.6023689,59.71647 68.5910057,57.1171548 C71.0366213,57.3021479 73.4461357,57.8074097 75.8253899,58.6333838 C77.6362058,59.2620208 85.7298885,66.7954353 98.7313831,80.2357526 C97.4005015,83.0301974 96.5128978,86.0266429 96.0672628,89.2159572 C89.3930514,82.4000475 84.4130249,77.4797616 81.1136544,74.443106 C77.2235271,70.8627332 73.5906049,69.15324 69.3580166,68.6101588 C67.8030028,68.4106357 66.6141266,68.3729798 63.900138,68.3729798 L52.0314744,68.3729798 C51.0292038,65.8012238 48.5317827,63.9792665 45.6095449,63.9792665 C41.8035211,63.9792665 38.7181291,67.0699183 38.7181291,70.8824305 C38.7181291,74.6949427 41.8035211,77.7855944 45.6095449,77.7855944 C48.3371273,77.7855944 50.6946036,76.1982805 51.8115992,73.895511 L63.900138,73.895511 C66.3791817,73.895511 67.4130946,73.9282586 68.6575562,74.0879349 C71.7513092,74.4848928 74.3278192,75.6972848 77.3835738,78.5097226 C81.176629,82.0007529 87.3398488,88.1365409 95.8510947,96.8974603 C96.2231455,101.044783 97.4412111,104.970882 99.338938,108.503683 C98.3419408,109.382459 97.0301461,110.67195 95.3165391,112.434889 C92.7115361,115.114887 90.5538094,116.578908 88.2638965,117.339142 C86.2763948,117.998977 84.1967783,118.195557 80.1642855,118.195557 L43.6693081,118.195557 C42.6119555,115.743371 40.1759757,114.027205 37.339846,114.027205 C33.5338221,114.027205 30.4484302,117.117857 30.4484302,120.930369 C30.4484302,124.742881 33.5338221,127.833533 37.339846,127.833533 C40.1555344,127.833533 42.5768203,126.142017 43.6462311,123.718088 L80.1642855,123.718088 C84.7481799,123.718088 87.3009041,123.476787 89.9983223,122.581265 C93.2001945,121.518268 96.0841698,119.561486 99.2665604,116.287478 C100.550256,114.966826 101.595585,113.929966 102.396096,113.182198 C102.402306,113.176398 102.408499,113.170617 102.414675,113.164855 C103.969039,115.114745 105.75722,116.880825 107.738974,118.421466 C106.079802,120.283118 102.967171,123.443656 98.4499794,127.84467 C95.1634509,131.046673 91.9423858,133.018795 88.8336368,134.049883 C86.8120115,134.720401 85.3862121,134.888064 83.557835,134.888007 C82.4235316,134.888007 75.0025448,134.888043 61.2948458,134.888116 Z M72.02578,107.124041 C73.0892035,109.562107 75.5178496,111.26594 78.3437698,111.26594 C82.1497936,111.26594 85.2351856,108.175288 85.2351856,104.362776 C85.2351856,100.550263 82.1497936,97.4596117 78.3437698,97.4596117 C75.5178496,97.4596117 73.0892035,99.163444 72.02578,101.60151 L11.1112698,101.60151 C11.3789143,98.287157 11.9100429,94.4323432 12.7657856,90.2112895 L56.8646653,90.2112895 C57.9280888,92.6493556 60.3567349,94.3531879 63.1826551,94.3531879 C66.9886789,94.3531879 70.0740709,91.2625361 70.0740709,87.450024 C70.0740709,83.6375118 66.9886789,80.54686 63.1826551,80.54686 C60.3567349,80.54686 57.9280888,82.2506923 56.8646653,84.6887584 L14.0261882,84.6887584 C22.0463556,53.048601 47.396892,6.92813955 111.341151,6.92813955 C130.349396,6.92813955 163.390763,34.9823128 210.465254,91.0906592 C227.094401,188.929829 232.342952,241.274174 226.210907,248.123694 C217.012838,258.397975 173.076325,248.594684 160.129344,256.051364 C154.19816,259.467369 148.966488,268.599035 144.17505,278.206965 C138.507421,289.571859 133.773659,298.921288 133.773659,311.63141 C133.773659,329.458239 144.255939,341.099829 148.278191,347.157791 C121.323076,375.976405 72.1955275,351.598305 0.895544046,274.023492 C32.1628951,242.595986 47.7965707,219.403083 47.7965707,204.444785 C47.7965707,176.756325 11.1980599,159.038854 10.9003789,107.124041 L72.02578,107.124041 Z M151.186603,75.2824534 C150.085636,73.8288742 148.849524,72.4707388 147.488236,71.2183408 C146.83737,70.6195377 146.162528,70.0501925 145.466949,69.5114365 L163.531184,51.9739497 L168.908283,58.0933689 L151.186603,75.2824534 Z M156.809735,100.625501 L178.481073,122.132239 L173.00142,127.925234 L153.77259,108.779562 C154.112638,108.15898 154.458683,107.518247 154.650528,107.128701 C155.629955,105.139946 156.357113,103.033186 156.809735,100.625501 Z M159.844685,141.834308 L154.277181,147.720177 L131.452627,124.878383 C134.499927,124.451049 137.393449,123.523108 140.120339,122.097272 L159.844685,141.834308 Z M126.58368,109.540149 C135.147234,109.540149 142.089366,102.586182 142.089366,94.0080297 C142.089366,85.4298773 135.147234,78.4759108 126.58368,78.4759108 C118.020127,78.4759108 111.077995,85.4298773 111.077995,94.0080297 C111.077995,102.586182 118.020127,109.540149 126.58368,109.540149 Z M126.58368,104.017617 C121.064946,104.017617 116.591127,99.5361724 116.591127,94.0080297 C116.591127,88.4798871 121.064946,83.998442 126.58368,83.998442 C132.102415,83.998442 136.576233,88.4798871 136.576233,94.0080297 C136.576233,99.5361724 132.102415,104.017617 126.58368,104.017617 Z M117.96941,146.472076 C121.775434,146.472076 124.860826,143.381424 124.860826,139.568912 C124.860826,135.7564 121.775434,132.665748 117.96941,132.665748 C114.163387,132.665748 111.077995,135.7564 111.077995,139.568912 C111.077995,143.381424 114.163387,146.472076 117.96941,146.472076 Z" id="Combined-Shape" fill="url(#linearGradient-2)"></path>
            <path d="M113.092356,0.285759698 C185.488163,0.285759698 235.689417,54.1158952 235.689417,102.394445 C235.689417,109.302201 234.144995,112.134142 234.144995,119.228672 C234.144995,122.665667 237.814409,126.404543 240.456874,129.685371 C246.962826,137.763025 253.708458,146.063649 255.021074,147.837741 C256.901711,150.379553 261.816112,155.688338 261.816112,163.530179 C261.816112,174.287897 250.153905,179.583727 244.570176,185.776411 C240.456874,190.338305 246.823436,222.63639 243.913753,236.261569 C241.00407,249.886747 232.490298,258.477935 225.431315,258.477935 C216.116792,258.477935 175.469547,238.587626 163.454461,227.058299 C155.862603,219.773372 135.403316,184.925432 131.991695,178.480838 C128.580075,172.036243 125.831593,168.476079 125.831593,162.410574 C125.831593,156.345069 130.261345,150.34529 138.490258,142.664052 C142.28439,139.122438 151.63488,130.480176 161.788161,120.260845 C168.313757,113.692798 172.323973,103.004598 172.323973,92.5046051 C172.323973,69.3593537 150.652746,49.6962567 120.455623,49.9567065 C91.0194042,50.2105935 87.9231527,49.4494423 77.6504458,36.0079284 C67.3777389,22.5664144 57.0617853,12.7380412 64.3533271,9.67231342 C71.6448688,6.60658563 83.4876822,0.285759698 113.092356,0.285759698 Z" id="Path-2" fill="#FFFFFF"></path>
        </g>
    </g>
</svg>