<?xml version="1.0" encoding="UTF-8"?>
<svg width="176px" height="22px" viewBox="0 0 176 22" version="1.1" xmlns="http://www.w3.org/2000/svg" xmlns:xlink="http://www.w3.org/1999/xlink">
    <!-- Generator: Sketch 49 (51002) - http://www.bohemiancoding.com/sketch -->
    <title>icons/logo</title>
    <desc>Created with Sketch.</desc>
    <defs>
        <linearGradient x1="100%" y1="100%" x2="0%" y2="0%" id="linearGradient-1">
            <stop stop-color="#45ABE7" offset="0%"></stop>
            <stop stop-color="#37ECBA" offset="100%"></stop>
        </linearGradient>
    </defs>
    <g id="icons/logo" stroke="none" stroke-width="1" fill="none" fill-rule="evenodd">
        <path d="M13.2631197,1.09037901 L13.2631197,5.70845481 C11.5373075,4.7035907 9.74760324,4.20116618 7.89395315,4.20116618 C7.06300656,4.20116618 6.42915296,4.37220431 5.99237334,4.71428571 C5.55559372,5.05636711 5.33720719,5.49465233 5.33720719,6.02915452 C5.33720719,6.56365671 5.60353223,7.03935652 6.1361903,7.45626822 C6.66884837,7.87317993 7.4678235,8.31681009 8.53313964,8.78717201 C9.19363565,9.08649324 9.74226523,9.34839538 10.1790449,9.5728863 C10.6158245,9.79737722 11.1165155,10.1073838 11.6811331,10.5029155 C12.2457507,10.8984471 12.6931767,11.3153525 13.0234247,11.7536443 C13.3536727,12.1919361 13.6359773,12.7317752 13.8703468,13.3731778 C14.1047164,14.0145805 14.2218994,14.7094229 14.2218994,15.4577259 C14.2218994,17.4033139 13.5081483,18.9800717 12.0806247,20.1880466 C10.653101,21.3960216 8.75686674,22 6.3918649,22 C3.85641248,22 1.78973016,21.5510249 0.191755947,20.6530612 L0.191755947,15.6822157 C2.13063133,17.0933015 4.19731364,17.7988338 6.3918649,17.7988338 C7.1375862,17.7988338 7.75546029,17.601071 8.24550572,17.2055394 C8.73555115,16.8100077 8.98057018,16.2915484 8.98057018,15.6501458 C8.98057018,15.4363449 8.94861118,15.2332371 8.88469221,15.0408163 C8.82077324,14.8483955 8.70359022,14.6666675 8.53313964,14.4956268 C8.36268906,14.3245861 8.19756753,14.1802727 8.03777011,14.0626822 C7.87797269,13.9450917 7.64360665,13.8061233 7.33466497,13.6457726 C7.02572329,13.4854219 6.76472475,13.3517984 6.55166152,13.244898 C6.33859829,13.1379975 6.02433474,12.9883392 5.60886145,12.7959184 C5.19338815,12.6034976 4.8578186,12.4538392 4.60214273,12.3469388 C3.21723174,11.7055362 2.10399307,10.9144848 1.26239332,9.97376093 C0.420793565,9.03303708 0,7.78232073 0,6.22157434 C0,4.36150673 0.681792105,2.85957812 2.04539677,1.71574344 C3.40900143,0.571908761 5.29458272,0 7.7021972,0 C9.85413581,0 11.7077581,0.363456035 13.2631197,1.09037901 Z M25.5674596,21.7434402 L25.5674596,0.128279883 L30.4891956,0.128279883 L30.4891956,21.7434402 L25.5674596,21.7434402 Z M56.0886145,4.0728863 L47.9070274,4.0728863 L47.9070274,9.65306122 L55.0339568,9.65306122 L55.0339568,13.5976676 L47.9070274,13.5976676 L47.9070274,21.7434402 L42.9533321,21.7434402 L42.9533321,0.128279883 L56.0886145,0.128279883 L56.0886145,4.0728863 Z M81.4643181,0.128279883 L81.4643181,4.10495627 L76.2229889,4.10495627 L76.2229889,21.7434402 L71.2692936,21.7434402 L71.2692936,4.10495627 L65.9960051,4.10495627 L65.9960051,0.128279883 L81.4643181,0.128279883 Z M97.4120211,17.4139942 L105.369893,17.4139942 L105.369893,21.7434402 L92.4902851,21.7434402 L92.4902851,0.128279883 L97.4120211,0.128279883 L97.4120211,17.4139942 Z M116.39586,21.7434402 L116.39586,0.128279883 L121.317596,0.128279883 L121.317596,21.7434402 L116.39586,21.7434402 Z M146.917015,4.0728863 L138.735428,4.0728863 L138.735428,9.65306122 L145.862357,9.65306122 L145.862357,13.5976676 L138.735428,13.5976676 L138.735428,21.7434402 L133.781732,21.7434402 L133.781732,0.128279883 L146.917015,0.128279883 L146.917015,4.0728863 Z M176,0.128279883 L168.553477,13.7900875 L168.553477,21.7434402 L163.631741,21.7434402 L163.631741,13.8221574 L156.281097,0.128279883 L162.033775,0.128279883 L163.344107,3.27113703 C164.02591,4.89602367 164.590519,6.28570851 165.037952,7.44023324 C165.485384,8.59475796 165.773016,9.3430498 165.900853,9.6851312 L166.06065,10.1982507 C166.273713,9.23614679 167.211177,6.92713198 168.873071,3.27113703 L170.279281,0.128279883 L176,0.128279883 Z" id="SIFTLIFY" fill="url(#linearGradient-1)"></path>
    </g>
</svg>